<mxfile host="Electron" agent="Mozilla/5.0 (Windows NT 10.0; Win64; x64) AppleWebKit/537.36 (KHTML, like Gecko) draw.io/26.1.1 Chrome/132.0.6834.210 Electron/34.3.3 Safari/537.36" version="26.1.1">
  <diagram name="PÃ¡gina-1" id="pxMfmKfkK642mjfuYyGS">
    <mxGraphModel dx="1843" dy="2068" grid="1" gridSize="10" guides="1" tooltips="1" connect="1" arrows="1" fold="1" page="1" pageScale="1" pageWidth="827" pageHeight="1169" math="0" shadow="0">
      <root>
        <mxCell id="0" />
        <mxCell id="1" parent="0" />
        <mxCell id="DdDPQqA7gDUCTwg2PMR9-1" value="Empleado" style="rounded=0;whiteSpace=wrap;html=1;" vertex="1" parent="1">
          <mxGeometry x="10" y="250" width="120" height="60" as="geometry" />
        </mxCell>
        <mxCell id="DdDPQqA7gDUCTwg2PMR9-2" value="Id_empleado" style="ellipse;whiteSpace=wrap;html=1;" vertex="1" parent="1">
          <mxGeometry x="30" y="220" width="80" height="30" as="geometry" />
        </mxCell>
        <mxCell id="DdDPQqA7gDUCTwg2PMR9-3" value="Rut" style="ellipse;whiteSpace=wrap;html=1;" vertex="1" parent="1">
          <mxGeometry x="30" y="190" width="80" height="30" as="geometry" />
        </mxCell>
        <mxCell id="DdDPQqA7gDUCTwg2PMR9-4" value="Nombre_completo" style="ellipse;whiteSpace=wrap;html=1;" vertex="1" parent="1">
          <mxGeometry x="20" y="160" width="110" height="30" as="geometry" />
        </mxCell>
        <mxCell id="DdDPQqA7gDUCTwg2PMR9-5" value="Mesero" style="rounded=0;whiteSpace=wrap;html=1;" vertex="1" parent="1">
          <mxGeometry x="294" y="160" width="120" height="60" as="geometry" />
        </mxCell>
        <mxCell id="DdDPQqA7gDUCTwg2PMR9-6" value="Cocinero" style="rounded=0;whiteSpace=wrap;html=1;" vertex="1" parent="1">
          <mxGeometry x="294" y="370" width="120" height="60" as="geometry" />
        </mxCell>
        <mxCell id="DdDPQqA7gDUCTwg2PMR9-7" value="Ser" style="rhombus;whiteSpace=wrap;html=1;" vertex="1" parent="1">
          <mxGeometry x="180" y="200" width="50" height="50" as="geometry" />
        </mxCell>
        <mxCell id="DdDPQqA7gDUCTwg2PMR9-8" value="Ser" style="rhombus;whiteSpace=wrap;html=1;" vertex="1" parent="1">
          <mxGeometry x="180" y="350" width="50" height="50" as="geometry" />
        </mxCell>
        <mxCell id="DdDPQqA7gDUCTwg2PMR9-9" value="" style="endArrow=none;html=1;rounded=0;exitX=1;exitY=0.5;exitDx=0;exitDy=0;entryX=0;entryY=0.5;entryDx=0;entryDy=0;" edge="1" parent="1" source="DdDPQqA7gDUCTwg2PMR9-1" target="DdDPQqA7gDUCTwg2PMR9-8">
          <mxGeometry width="50" height="50" relative="1" as="geometry">
            <mxPoint x="390" y="350" as="sourcePoint" />
            <mxPoint x="440" y="300" as="targetPoint" />
          </mxGeometry>
        </mxCell>
        <mxCell id="DdDPQqA7gDUCTwg2PMR9-10" value="" style="endArrow=none;html=1;rounded=0;exitX=1;exitY=0.5;exitDx=0;exitDy=0;entryX=0;entryY=0.5;entryDx=0;entryDy=0;" edge="1" parent="1" source="DdDPQqA7gDUCTwg2PMR9-8" target="DdDPQqA7gDUCTwg2PMR9-6">
          <mxGeometry width="50" height="50" relative="1" as="geometry">
            <mxPoint x="140" y="290" as="sourcePoint" />
            <mxPoint x="190" y="385" as="targetPoint" />
          </mxGeometry>
        </mxCell>
        <mxCell id="DdDPQqA7gDUCTwg2PMR9-11" value="" style="endArrow=none;html=1;rounded=0;exitX=1;exitY=0.5;exitDx=0;exitDy=0;entryX=0;entryY=0.5;entryDx=0;entryDy=0;" edge="1" parent="1" source="DdDPQqA7gDUCTwg2PMR9-1" target="DdDPQqA7gDUCTwg2PMR9-7">
          <mxGeometry width="50" height="50" relative="1" as="geometry">
            <mxPoint x="240" y="385" as="sourcePoint" />
            <mxPoint x="304" y="410" as="targetPoint" />
          </mxGeometry>
        </mxCell>
        <mxCell id="DdDPQqA7gDUCTwg2PMR9-12" value="" style="endArrow=none;html=1;rounded=0;exitX=1;exitY=0.5;exitDx=0;exitDy=0;entryX=0;entryY=0.5;entryDx=0;entryDy=0;" edge="1" parent="1" source="DdDPQqA7gDUCTwg2PMR9-7" target="DdDPQqA7gDUCTwg2PMR9-5">
          <mxGeometry width="50" height="50" relative="1" as="geometry">
            <mxPoint x="140" y="290" as="sourcePoint" />
            <mxPoint x="190" y="235" as="targetPoint" />
          </mxGeometry>
        </mxCell>
        <mxCell id="DdDPQqA7gDUCTwg2PMR9-13" value="Administrador" style="rounded=0;whiteSpace=wrap;html=1;" vertex="1" parent="1">
          <mxGeometry x="294" y="270" width="120" height="60" as="geometry" />
        </mxCell>
        <mxCell id="DdDPQqA7gDUCTwg2PMR9-14" value="Ser" style="rhombus;whiteSpace=wrap;html=1;" vertex="1" parent="1">
          <mxGeometry x="180" y="270" width="50" height="50" as="geometry" />
        </mxCell>
        <mxCell id="DdDPQqA7gDUCTwg2PMR9-15" value="" style="endArrow=none;html=1;rounded=0;exitX=1;exitY=0.5;exitDx=0;exitDy=0;entryX=0;entryY=0.5;entryDx=0;entryDy=0;" edge="1" parent="1" source="DdDPQqA7gDUCTwg2PMR9-14" target="DdDPQqA7gDUCTwg2PMR9-13">
          <mxGeometry width="50" height="50" relative="1" as="geometry">
            <mxPoint x="240" y="235" as="sourcePoint" />
            <mxPoint x="304" y="200" as="targetPoint" />
          </mxGeometry>
        </mxCell>
        <mxCell id="DdDPQqA7gDUCTwg2PMR9-16" value="" style="endArrow=none;html=1;rounded=0;exitX=1;exitY=0.5;exitDx=0;exitDy=0;entryX=0;entryY=0.5;entryDx=0;entryDy=0;" edge="1" parent="1" source="DdDPQqA7gDUCTwg2PMR9-1" target="DdDPQqA7gDUCTwg2PMR9-14">
          <mxGeometry width="50" height="50" relative="1" as="geometry">
            <mxPoint x="240" y="305" as="sourcePoint" />
            <mxPoint x="304" y="310" as="targetPoint" />
          </mxGeometry>
        </mxCell>
        <mxCell id="DdDPQqA7gDUCTwg2PMR9-18" value="Venta" style="rounded=0;whiteSpace=wrap;html=1;" vertex="1" parent="1">
          <mxGeometry x="294" y="-30" width="120" height="60" as="geometry" />
        </mxCell>
        <mxCell id="DdDPQqA7gDUCTwg2PMR9-20" value="Realizar" style="rhombus;whiteSpace=wrap;html=1;" vertex="1" parent="1">
          <mxGeometry x="329" y="70" width="50" height="50" as="geometry" />
        </mxCell>
        <mxCell id="DdDPQqA7gDUCTwg2PMR9-21" value="" style="endArrow=none;html=1;rounded=0;exitX=0.5;exitY=0;exitDx=0;exitDy=0;entryX=0.5;entryY=1;entryDx=0;entryDy=0;" edge="1" parent="1" source="DdDPQqA7gDUCTwg2PMR9-5" target="DdDPQqA7gDUCTwg2PMR9-20">
          <mxGeometry width="50" height="50" relative="1" as="geometry">
            <mxPoint x="550" y="90" as="sourcePoint" />
            <mxPoint x="600" y="40" as="targetPoint" />
          </mxGeometry>
        </mxCell>
        <mxCell id="DdDPQqA7gDUCTwg2PMR9-22" value="" style="endArrow=none;html=1;rounded=0;exitX=0.5;exitY=0;exitDx=0;exitDy=0;entryX=0.5;entryY=1;entryDx=0;entryDy=0;" edge="1" parent="1" source="DdDPQqA7gDUCTwg2PMR9-20" target="DdDPQqA7gDUCTwg2PMR9-18">
          <mxGeometry width="50" height="50" relative="1" as="geometry">
            <mxPoint x="364" y="170" as="sourcePoint" />
            <mxPoint x="370" y="130" as="targetPoint" />
          </mxGeometry>
        </mxCell>
        <mxCell id="DdDPQqA7gDUCTwg2PMR9-23" value="Id_venta" style="ellipse;whiteSpace=wrap;html=1;" vertex="1" parent="1">
          <mxGeometry x="270" y="-60" width="80" height="30" as="geometry" />
        </mxCell>
        <mxCell id="DdDPQqA7gDUCTwg2PMR9-25" value="Consumo" style="ellipse;whiteSpace=wrap;html=1;" vertex="1" parent="1">
          <mxGeometry x="350" y="-60" width="80" height="30" as="geometry" />
        </mxCell>
        <mxCell id="DdDPQqA7gDUCTwg2PMR9-26" value="Monto_total" style="ellipse;whiteSpace=wrap;html=1;" vertex="1" parent="1">
          <mxGeometry x="314" y="-90" width="80" height="30" as="geometry" />
        </mxCell>
        <mxCell id="DdDPQqA7gDUCTwg2PMR9-27" value="N_comensales" style="ellipse;whiteSpace=wrap;html=1;" vertex="1" parent="1">
          <mxGeometry x="270" y="-120" width="80" height="30" as="geometry" />
        </mxCell>
        <mxCell id="DdDPQqA7gDUCTwg2PMR9-28" value="Boleta" style="rounded=0;whiteSpace=wrap;html=1;" vertex="1" parent="1">
          <mxGeometry x="600" y="-30" width="120" height="60" as="geometry" />
        </mxCell>
        <mxCell id="DdDPQqA7gDUCTwg2PMR9-29" value="Genera" style="rhombus;whiteSpace=wrap;html=1;" vertex="1" parent="1">
          <mxGeometry x="490" y="-25" width="50" height="50" as="geometry" />
        </mxCell>
        <mxCell id="DdDPQqA7gDUCTwg2PMR9-30" value="" style="endArrow=none;html=1;rounded=0;exitX=1;exitY=0.5;exitDx=0;exitDy=0;entryX=0;entryY=0.5;entryDx=0;entryDy=0;" edge="1" parent="1" source="DdDPQqA7gDUCTwg2PMR9-18" target="DdDPQqA7gDUCTwg2PMR9-29">
          <mxGeometry width="50" height="50" relative="1" as="geometry">
            <mxPoint x="364" y="80" as="sourcePoint" />
            <mxPoint x="364" y="40" as="targetPoint" />
          </mxGeometry>
        </mxCell>
        <mxCell id="DdDPQqA7gDUCTwg2PMR9-32" value="" style="endArrow=none;html=1;rounded=0;exitX=1;exitY=0.5;exitDx=0;exitDy=0;entryX=0;entryY=0.5;entryDx=0;entryDy=0;" edge="1" parent="1" source="DdDPQqA7gDUCTwg2PMR9-29" target="DdDPQqA7gDUCTwg2PMR9-28">
          <mxGeometry width="50" height="50" relative="1" as="geometry">
            <mxPoint x="424" y="10" as="sourcePoint" />
            <mxPoint x="500" y="10" as="targetPoint" />
          </mxGeometry>
        </mxCell>
        <mxCell id="DdDPQqA7gDUCTwg2PMR9-33" value="Id_boleta" style="ellipse;whiteSpace=wrap;html=1;" vertex="1" parent="1">
          <mxGeometry x="580" y="-60" width="80" height="30" as="geometry" />
        </mxCell>
        <mxCell id="DdDPQqA7gDUCTwg2PMR9-34" value="Consumible" style="rounded=0;whiteSpace=wrap;html=1;" vertex="1" parent="1">
          <mxGeometry x="610" y="270" width="120" height="60" as="geometry" />
        </mxCell>
        <mxCell id="DdDPQqA7gDUCTwg2PMR9-35" value="ingredientes" style="rounded=0;whiteSpace=wrap;html=1;" vertex="1" parent="1">
          <mxGeometry x="970" y="270" width="120" height="60" as="geometry" />
        </mxCell>
        <mxCell id="DdDPQqA7gDUCTwg2PMR9-36" value="Usar" style="rhombus;whiteSpace=wrap;html=1;" vertex="1" parent="1">
          <mxGeometry x="820" y="270" width="60" height="60" as="geometry" />
        </mxCell>
        <mxCell id="DdDPQqA7gDUCTwg2PMR9-37" value="" style="endArrow=none;html=1;rounded=0;exitX=1;exitY=0.5;exitDx=0;exitDy=0;entryX=0;entryY=0.5;entryDx=0;entryDy=0;" edge="1" parent="1" source="DdDPQqA7gDUCTwg2PMR9-34" target="DdDPQqA7gDUCTwg2PMR9-36">
          <mxGeometry width="50" height="50" relative="1" as="geometry">
            <mxPoint x="910" y="250" as="sourcePoint" />
            <mxPoint x="960" y="200" as="targetPoint" />
          </mxGeometry>
        </mxCell>
        <mxCell id="DdDPQqA7gDUCTwg2PMR9-38" value="" style="endArrow=none;html=1;rounded=0;exitX=1;exitY=0.5;exitDx=0;exitDy=0;entryX=0;entryY=0.5;entryDx=0;entryDy=0;" edge="1" parent="1" source="DdDPQqA7gDUCTwg2PMR9-36" target="DdDPQqA7gDUCTwg2PMR9-35">
          <mxGeometry width="50" height="50" relative="1" as="geometry">
            <mxPoint x="740" y="310" as="sourcePoint" />
            <mxPoint x="830" y="310" as="targetPoint" />
          </mxGeometry>
        </mxCell>
        <mxCell id="DdDPQqA7gDUCTwg2PMR9-39" value="Id_ingrediente" style="ellipse;whiteSpace=wrap;html=1;" vertex="1" parent="1">
          <mxGeometry x="950" y="230" width="90" height="40" as="geometry" />
        </mxCell>
        <mxCell id="DdDPQqA7gDUCTwg2PMR9-40" value="stock_actual" style="ellipse;whiteSpace=wrap;html=1;" vertex="1" parent="1">
          <mxGeometry x="1040" y="230" width="90" height="40" as="geometry" />
        </mxCell>
        <mxCell id="DdDPQqA7gDUCTwg2PMR9-41" value="nombre" style="ellipse;whiteSpace=wrap;html=1;" vertex="1" parent="1">
          <mxGeometry x="1000" y="200" width="90" height="40" as="geometry" />
        </mxCell>
        <mxCell id="DdDPQqA7gDUCTwg2PMR9-42" value="" style="endArrow=none;html=1;rounded=0;exitX=1;exitY=0.5;exitDx=0;exitDy=0;" edge="1" parent="1" source="DdDPQqA7gDUCTwg2PMR9-13">
          <mxGeometry width="50" height="50" relative="1" as="geometry">
            <mxPoint x="510" y="290" as="sourcePoint" />
            <mxPoint x="480" y="300" as="targetPoint" />
          </mxGeometry>
        </mxCell>
        <mxCell id="DdDPQqA7gDUCTwg2PMR9-43" value="Modificar" style="rhombus;whiteSpace=wrap;html=1;" vertex="1" parent="1">
          <mxGeometry x="480" y="275" width="60" height="50" as="geometry" />
        </mxCell>
        <mxCell id="DdDPQqA7gDUCTwg2PMR9-44" value="" style="endArrow=none;html=1;rounded=0;exitX=1;exitY=0.5;exitDx=0;exitDy=0;entryX=0;entryY=0.5;entryDx=0;entryDy=0;" edge="1" parent="1" source="DdDPQqA7gDUCTwg2PMR9-43" target="DdDPQqA7gDUCTwg2PMR9-34">
          <mxGeometry width="50" height="50" relative="1" as="geometry">
            <mxPoint x="424" y="310" as="sourcePoint" />
            <mxPoint x="490" y="310" as="targetPoint" />
          </mxGeometry>
        </mxCell>
        <mxCell id="DdDPQqA7gDUCTwg2PMR9-45" value="ID_consumible" style="ellipse;whiteSpace=wrap;html=1;" vertex="1" parent="1">
          <mxGeometry x="590" y="230" width="90" height="40" as="geometry" />
        </mxCell>
        <mxCell id="DdDPQqA7gDUCTwg2PMR9-46" value="Nombre" style="ellipse;whiteSpace=wrap;html=1;" vertex="1" parent="1">
          <mxGeometry x="690" y="230" width="90" height="40" as="geometry" />
        </mxCell>
        <mxCell id="DdDPQqA7gDUCTwg2PMR9-47" value="Precio" style="ellipse;whiteSpace=wrap;html=1;" vertex="1" parent="1">
          <mxGeometry x="640" y="200" width="90" height="40" as="geometry" />
        </mxCell>
      </root>
    </mxGraphModel>
  </diagram>
</mxfile>
